<svg width="27" height="27" viewBox="0 0 27 27" fill="none" xmlns="http://www.w3.org/2000/svg">
<circle cx="13.125" cy="13.125" r="10.125" fill="#646464"/>
<rect width="12" height="12" transform="translate(7 7)" fill="#646464"/>
<path fill-rule="evenodd" clip-rule="evenodd" d="M15.9742 16.824C16.2089 17.0586 16.5893 17.0586 16.824 16.824C17.0587 16.5893 17.0587 16.2089 16.824 15.9742L13.8498 13L16.824 10.0258C17.0587 9.79115 17.0587 9.41069 16.824 9.17603C16.5893 8.94137 16.2089 8.94137 15.9742 9.17603L13 12.1502L10.0258 9.17599C9.79112 8.94134 9.41066 8.94134 9.176 9.17599C8.94134 9.41065 8.94134 9.79111 9.176 10.0258L12.1502 13L9.17599 15.9742C8.94133 16.2089 8.94134 16.5893 9.17599 16.824C9.41065 17.0587 9.79111 17.0587 10.0258 16.824L13 13.8498L15.9742 16.824Z" fill="white"/>
</svg>
