<svg width="72" height="72" viewBox="0 0 72 72" fill="none" xmlns="http://www.w3.org/2000/svg">
<circle cx="36" cy="36" r="36" fill="#E0EFDB"/>
<path d="M44 32H48.0833C48.7737 32 49.3333 32.5596 49.3333 33.25V46.125C49.3333 47.1605 48.4939 48 47.4583 48H45.875C44.8395 48 44 47.1605 44 46.125V32Z" fill="#36861D"/>
<path fill-rule="evenodd" clip-rule="evenodd" d="M24 25.1666C24 23.7859 25.1193 22.6666 26.5 22.6666H40.1667C41.5474 22.6666 42.6667 23.7859 42.6667 25.1666L42.6667 33.3333L42.6667 46.2411L42.6667 47.4583C42.6667 48.4938 43.5061 49.3333 44.5417 49.3333L26.5 49.3333C25.1193 49.3333 24 48.214 24 46.8333V25.1666ZM28 31.25C27.5858 31.25 27.25 31.5857 27.25 32C27.25 32.4142 27.5858 32.75 28 32.75H38.6667C39.0809 32.75 39.4167 32.4142 39.4167 32C39.4167 31.5857 39.0809 31.25 38.6667 31.25H28ZM27.25 36C27.25 35.5857 27.5858 35.25 28 35.25H38.6667C39.0809 35.25 39.4167 35.5857 39.4167 36C39.4167 36.4142 39.0809 36.75 38.6667 36.75H28C27.5858 36.75 27.25 36.4142 27.25 36ZM28 39.25C27.5858 39.25 27.25 39.5857 27.25 40C27.25 40.4142 27.5858 40.75 28 40.75H38.6667C39.0809 40.75 39.4167 40.4142 39.4167 40C39.4167 39.5857 39.0809 39.25 38.6667 39.25H28Z" fill="#36861D"/>
</svg>
