<svg width="72" height="72" viewBox="0 0 72 72" fill="none" xmlns="http://www.w3.org/2000/svg">
<circle cx="36" cy="36" r="36" fill="#E0EFDB"/>
<path fill-rule="evenodd" clip-rule="evenodd" d="M30.3053 29.4774L43.999 43.1572C44.5394 43.697 44.3366 44.6146 43.6189 44.8769L40.2363 46.1132C40.415 45.8242 40.3789 45.4403 40.128 45.1897L29.053 34.1259C29.0179 33.7711 28.7355 33.4889 28.3805 33.4542L27.9358 33.0099C27.8152 32.8894 27.6639 32.8186 27.5071 32.7972L28.5838 29.8572C28.8464 29.1403 29.765 28.9376 30.3053 29.4774ZM26.9964 34.1917L20.6836 51.4291C20.3778 52.264 21.1892 53.0745 22.0249 52.7691L27.5567 50.7473L27.5567 34.7514L26.9964 34.1917ZM29.0567 36.2498L29.0567 50.1991L33.0244 48.749L33.0244 40.2135L29.0567 36.2498ZM34.5244 41.7119L34.5244 48.2008L39.3636 46.4322C39.2551 46.3967 39.1531 46.3359 39.0668 46.2498L34.5244 41.7119Z" fill="#36861D"/>
<circle cx="1.81956" cy="1.81956" r="1.81956" transform="matrix(0.707469 0.706745 -0.707469 0.706745 37.9692 19.6201)" fill="#C4C4C4" stroke="#36861D" stroke-width="1.2"/>
<path d="M44.0742 21.4391C44.5033 22.2964 44.8466 24.5254 42.7869 26.5829" stroke="#36861D" stroke-width="1.5" stroke-linecap="round"/>
<path d="M49.8667 29.0444C49.0085 28.6157 46.7772 28.2728 44.7176 30.3303" stroke="#36861D" stroke-width="1.5" stroke-linecap="round"/>
<path d="M32.6201 23.4779C32.6201 23.4779 36.2872 27.3379 35.8383 31.8367" stroke="#36861D" stroke-width="1.5" stroke-linecap="round"/>
<path d="M51.2852 42.1245C51.2852 42.1245 47.4212 38.4612 42.9178 38.9096" stroke="#36861D" stroke-width="1.5" stroke-linecap="round"/>
<path d="M50.0688 34.1686V38.0265" stroke="#36861D" stroke-width="1.2" stroke-linecap="round"/>
<path d="M52 36.0979L48.1382 36.0979" stroke="#36861D" stroke-width="1.2" stroke-linecap="round"/>
<path d="M39.2417 34.2006L41.0643 32.3781" stroke="#36861D" stroke-width="1.5" stroke-linecap="round"/>
</svg>
