<svg width="72" height="72" viewBox="0 0 72 72" fill="none" xmlns="http://www.w3.org/2000/svg">
<circle cx="36" cy="36" r="36" fill="#E0EFDB"/>
<path fill-rule="evenodd" clip-rule="evenodd" d="M46.6667 33.037C46.6667 37.1738 44.1753 40.7449 40.5717 42.4093V44.5833H36.7502V40.9376L39.0993 39.2794C39.4377 39.0405 39.5184 38.5725 39.2796 38.2341C39.0407 37.8957 38.5727 37.815 38.2343 38.0539L36.0002 39.6309L33.766 38.0539C33.4276 37.815 32.9596 37.8957 32.7208 38.2341C32.4819 38.5725 32.5626 39.0405 32.901 39.2794L35.2502 40.9376V44.5833H31.4289V42.4095C27.8251 40.7451 25.3335 37.174 25.3335 33.037C25.3335 27.3096 30.1091 22.6666 36.0001 22.6666C41.8911 22.6666 46.6667 27.3096 46.6667 33.037ZM31.4289 46.0833V47.1111C31.4289 48.3384 32.4238 49.3333 33.6511 49.3333H38.3494C39.5767 49.3333 40.5717 48.3384 40.5717 47.1111V46.0833H36.0002H31.4289Z" fill="#36861D"/>
</svg>
